<svg xmlns="http://www.w3.org/2000/svg" width="160" height="31" viewBox="0 0 160 31" fill="none">
  <path d="M81.791 7.8125C82.2327 10.6478 82.8957 13.9242 84.0312 17.8936H84.0625C85.1035 13.8612 85.6083 10.3643 85.8291 7.8125H92.2021C90.7826 15.1843 89.2681 20.5716 87.4385 24.2891C84.757 29.7393 81.728 31 78.3525 31C77.3434 30.9999 76.2713 30.748 75.6719 30.4961L75.7666 25.7383H78.0371C79.1726 25.7383 79.5517 25.2977 80.0879 24.3213C77.9743 19.8792 76.1129 13.6723 75.0088 7.8125H81.791ZM28.499 7.24609C34.0825 7.24618 36.3535 9.73507 36.3535 15.4688C36.3535 16.0358 36.3219 17.0752 36.2588 17.9258H26.3223C26.3223 19.2805 27.3002 19.9111 29.4453 19.9111C30.991 19.9111 33.199 19.7213 35.2178 19.2803L35.7227 23.9121C33.4514 24.5422 31.0854 24.8887 28.5303 24.8887C22.568 24.8887 19.666 22.3361 19.666 16.3818C19.6662 10.5538 22.7262 7.24609 28.499 7.24609ZM45.7295 7.24609C51.1553 7.24609 53.9315 8.56914 53.9316 13.3574V24.3213H48.9795L48.5693 22.9668C47.4968 24.1009 45.7615 24.8886 43.585 24.8887C40.3672 24.8887 37.6855 23.2185 37.6855 19.501C37.6857 15.3111 40.6826 13.7041 47.2441 13.7041H47.4961V13.2637C47.4961 12.35 47.1175 11.877 45.0039 11.877C43.3636 11.877 41.4709 12.318 40.083 12.8535L39.0732 8.44336C40.9028 7.7188 43.5529 7.24614 45.7295 7.24609ZM122.583 7.24609C128.167 7.24611 130.438 9.73499 130.438 15.4688C130.438 16.0358 130.407 17.0753 130.344 17.9258H120.406C120.406 19.2805 121.384 19.9111 123.529 19.9111C125.075 19.9111 127.284 19.7213 129.303 19.2803L129.807 23.9121C127.535 24.5421 125.169 24.8887 122.614 24.8887C116.652 24.8886 113.75 22.3361 113.75 16.3818C113.75 10.5538 116.81 7.24609 122.583 7.24609ZM73.5557 24.3203H68.6025L68.1924 22.8711C66.9306 24.1312 65.3848 24.8876 63.1768 24.8877C58.4765 24.8877 56.1105 21.4224 56.1104 16.8545C56.1104 11.2783 58.9492 7.33989 65.1953 7.33984C65.6684 7.33984 66.4569 7.43457 66.9932 7.56055V0.692383H73.5557V24.3203ZM8.99023 2.33105C14.3531 2.33105 18.0762 3.87537 18.0762 8.79004C18.0761 11.7197 16.8457 13.736 14.543 14.7441L19.1484 24.3213H11.2939L7.98145 16.6025H6.9082V24.3213H0V2.33105H8.99023ZM100.021 2.33105C101.062 7.40324 102.45 12.8539 103.869 17.6426H103.9C105.352 12.8539 106.708 7.43475 107.654 2.33105H114.532C112.797 9.32496 110.652 16.8233 107.876 24.3213H98.8223C96.3301 16.9178 94.0586 9.325 92.292 2.33105H100.021ZM140.345 24.3213H133.783V12.7275H131.701V7.81348H140.345V24.3213ZM153.816 7.24609C157.886 7.24609 160 9.29423 160 13.7363V24.3213H153.438V15.1533C153.438 13.2949 153.06 12.5392 151.987 12.5391C151.199 12.5391 150.568 12.9485 149.811 13.7676V24.3213H143.249V7.81348H148.201L148.611 9.2627C150.125 7.87658 151.545 7.24616 153.816 7.24609ZM47.0547 17.5479C44.6257 17.5479 43.9629 18.1154 43.9629 19.0605C43.9631 19.8794 44.5631 20.3201 45.4463 20.3516C46.3294 20.3829 47.023 19.879 47.4961 19.249V17.5479H47.0547ZM65.3535 12.5381C63.934 12.5381 62.9561 13.4831 62.9561 16.0977C62.9561 18.5548 63.4603 19.5946 64.6904 19.5947C65.5106 19.5947 66.2992 19.1222 66.9932 18.3662V13.0732C66.7092 12.8213 66.1416 12.5382 65.3535 12.5381ZM28.2461 11.5938C26.8899 11.5939 26.3854 12.5702 26.3223 14.082H29.9814C30.0445 12.6016 29.6971 11.5938 28.2461 11.5938ZM122.331 11.5938C120.975 11.5938 120.469 12.5701 120.406 14.082H124.065C124.128 12.6017 123.782 11.594 122.331 11.5938ZM6.9082 11.6885H8.20215C9.84248 11.6884 10.8516 10.9633 10.8516 9.45117C10.8515 8.15956 10.1576 7.40332 8.4541 7.40332H6.9082V11.6885ZM137.063 0C139.24 0 140.691 1.35478 140.691 3.49707C140.691 5.6393 139.24 6.99414 137.063 6.99414C134.887 6.99411 133.436 5.63928 133.436 3.49707C133.436 1.3548 134.887 2.70689e-05 137.063 0Z" fill="black"/>
</svg>
